<!-- SPDX-License-Identifier: Apache-2.0 -->
<svg xmlns="http://www.w3.org/2000/svg" viewBox="0 0 600 360"><title>Service capacity forecast — demand history / input observations</title><style>.tiny{font:9px Arial,sans-serif;fill:#d3dfce;letter-spacing:.5px}</style><rect width="600" height="360" fill="#0a3029"/><circle cx="560" cy="-40" r="200" fill="none" stroke="#527361" stroke-opacity=".2"/><circle cx="560" cy="-40" r="260" fill="none" stroke="#527361" stroke-opacity=".15"/><text x="30" y="35" class="tiny">07 / DECISION STUDIO</text><path d="M30 54 H570" stroke="#436251" stroke-opacity=".6"/><polyline points="30.0,163.4 36.5,155.9 43.0,154.0 49.5,153.0 56.0,144.6 62.5,174.2 69.0,188.4 75.5,158.2 82.0,157.3 88.6,154.4 95.1,146.0 101.6,143.1 108.1,175.2 114.6,181.3 121.1,158.7 127.6,152.1 134.1,155.9 140.6,146.0 147.1,136.6 153.6,173.8 160.1,181.8 166.6,152.1 173.1,152.6 179.6,150.7 186.1,147.9 192.7,136.6 199.2,167.2 205.7,180.8 212.2,152.6 218.7,146.0 225.2,151.1 231.7,142.2 238.2,138.4 244.7,167.2 251.2,173.8 257.7,151.6 264.2,146.4 270.7,144.1 277.2,143.1 283.7,132.8 290.2,168.6 296.7,174.2 303.3,144.6 309.8,145.5 316.3,145.0 322.8,136.1 329.3,133.7 335.8,163.4 342.3,175.6 348.8,145.0 355.3,138.4 361.8,143.6 368.3,137.0 374.8,126.7 381.3,163.9 387.8,170.5 394.3,146.4 400.8,138.4 407.3,137.0 413.9,135.6 420.4,127.1 426.9,157.3 433.4,170.9 439.9,127.1 446.4,126.2 452.9,122.9 459.4,114.9 465.9,112.1 472.4,143.6 478.9,150.2 485.4,127.6 491.9,120.5 498.4,124.8 504.9,114.9 511.4,105.0 518.0,142.7 524.5,150.7 531.0,120.5 537.5,121.5 544.0,119.1 550.5,116.3 557.0,105.5 563.5,135.6 570.0,149.7" fill="none" stroke="#a7d0bd" stroke-width="2.5"/><rect x="480.0" y="80" width="90.0" height="205" fill="#a7d0bd" opacity=".08"/><text x="480.0" y="304" class="tiny">HOLDOUT</text><text x="30" y="338" class="tiny">DEMAND HISTORY / INPUT OBSERVATIONS</text><text x="544" y="339" font-family="Georgia" font-size="24" fill="#a7d0bd">α</text></svg>
